Coordinates
version=1
nRows=29
nColumns=22
inDegrees=yes

Units are S.I. units (second, meters, Newtons, ...)
If the header above contains a line with 'inDegrees', this indicates whether rotational values are in degrees (yes) or radians (no).

endheader
time	pelvis_tilt	pelvis_list	pelvis_rotation	pelvis_tx	pelvis_ty	pelvis_tz	hip_flexion_r	hip_adduction_r	hip_rotation_r	knee_angle_r	ankle_angle_r	subtalar_angle_r	hip_flexion_l	hip_adduction_l	hip_rotation_l	knee_angle_l	ankle_angle_l	subtalar_angle_l	lumbar_extension	lumbar_bending	lumbar_rotation
      0.01000000	     -1.97016752	     -4.43299211	     -2.62481993	      0.09399186	      1.02075281	      1.33659105	      2.47778905	      3.07927172	     -2.95466714	    -13.04887319	      9.72930458	      1.92485178	     -1.11429913	     -6.97919068	    -12.84171027	     -8.54703185	     10.55424820	     -2.51338502	     -2.20337804	      0.92355415	     -1.61596288
      0.02000000	     -1.97165374	     -4.43357667	     -2.63307660	      0.09394518	      1.02075014	      1.33658285	      2.47903713	      3.07798391	     -2.95737087	    -13.04153486	      9.72945515	      1.92749590	     -1.11338331	     -6.98259674	    -12.83969886	     -8.54609846	     10.55397388	     -2.51307391	     -2.20965985	      0.92602246	     -1.61310685
      0.03000000	     -1.96057189	     -4.46077946	     -2.65010207	      0.09393101	      1.02077159	      1.33659064	      2.45669728	      3.10539478	     -2.94576848	    -13.01926824	      9.71120599	      1.97994551	     -1.14043690	     -7.01361235	    -12.83579795	     -8.52892488	     10.55867150	     -2.49433559	     -2.22518510	      0.95877476	     -1.57589264
      0.04000000	     -1.96210490	     -4.46027387	     -2.65625894	      0.09388575	      1.02076835	      1.33658606	      2.45907713	      3.10342256	     -2.94786956	    -13.01433729	      9.71182849	      1.98098613	     -1.13946422	     -7.01763666	    -12.83435582	     -8.52768347	     10.55895049	     -2.49320514	     -2.23075903	      0.95878414	     -1.57423953
      0.05000000	     -1.96279660	     -4.46975759	     -2.66996778	      0.09385565	      1.02076774	      1.33659597	      2.46203936	      3.11172997	     -2.95290917	    -13.01324260	      9.71262712	      1.99160977	     -1.15152912	     -7.03074465	    -12.82175726	     -8.51080465	     10.56227116	     -2.47583080	     -2.23437472	      0.97029822	     -1.54302359
      0.06000000	     -1.96490108	     -4.47050548	     -2.67389682	      0.09380723	      1.02076545	      1.33660685	      2.46787858	      3.11251461	     -2.95194328	    -13.01285370	      9.71263038	      1.99314363	     -1.15287026	     -7.03662991	    -12.82143884	     -8.50276111	     10.56310984	     -2.47243234	     -2.24130427	      0.97004028	     -1.54477556
      0.07000000	     -1.96757398	     -4.48167146	     -2.68485890	      0.09378930	      1.02075994	      1.33662656	      2.48743515	      3.12394316	     -2.94344000	    -13.04414779	      9.71303306	      2.00069660	     -1.17700092	     -7.04843532	    -12.81552072	     -8.45702069	     10.56495840	     -2.44959651	     -2.24089628	      0.98665762	     -1.54543435
      0.08000000	     -1.97207133	     -4.48807773	     -2.69060571	      0.09376179	      1.02075483	      1.33665581	      2.50801264	      3.13196724	     -2.93677420	    -13.07141293	      9.71714168	      2.00702675	     -1.19435957	     -7.05654021	    -12.81259493	     -8.41692154	     10.56228584	     -2.42592200	     -2.24204138	      0.99490071	     -1.54437863
      0.09000000	     -1.97824169	     -4.49132307	     -2.69613881	      0.09373188	      1.02074608	      1.33668619	      2.53654732	      3.13633311	     -2.93001002	    -13.10919728	      9.72300078	      2.01177879	     -1.21250412	     -7.05971350	    -12.81296683	     -8.37155891	     10.55800445	     -2.40378612	     -2.24330543	      1.00132365	     -1.55305845
      0.10000000	     -1.98591561	     -4.49219176	     -2.69858555	      0.09370370	      1.02073364	      1.33672466	      2.57414469	      3.13918384	     -2.92297698	    -13.16237055	      9.73113673	      2.01490959	     -1.23257907	     -7.05972680	    -12.81509036	     -8.31757300	     10.55158683	     -2.38356485	     -2.24410857	      1.00538309	     -1.56733784
      0.11000000	     -1.99446745	     -4.49054298	     -2.69824642	      0.09367013	      1.02071974	      1.33676273	      2.61979677	      3.13964658	     -2.91561542	    -13.22756289	      9.74151285	      2.01617072	     -1.25301410	     -7.05625713	    -12.81863313	     -8.25922566	     10.54285333	     -2.36585896	     -2.24635745	      1.00670712	     -1.58567613
      0.12000000	     -2.02219204	     -4.46404642	     -2.71161669	      0.09361553	      1.02067321	      1.33681240	      2.70829502	      3.11273930	     -2.92013067	    -13.33070050	      9.79516558	      2.01492456	     -1.26177048	     -7.02280224	    -12.81197871	     -8.18248365	     10.50104001	     -2.31828364	     -2.23150735	      0.98297635	     -1.57175901
      0.13000000	     -2.04379660	     -4.44091212	     -2.71358254	      0.09355847	      1.02063177	      1.33685489	      2.78949874	      3.09098832	     -2.91593136	    -13.43252648	      9.82613154	      2.00863305	     -1.26739328	     -6.99515584	    -12.81968319	     -8.12008015	     10.48181110	     -2.29076365	     -2.22832372	      0.96492051	     -1.59832991
      0.14000000	     -2.06303779	     -4.41934528	     -2.71101924	      0.09349899	      1.02059346	      1.33690183	      2.86799851	      3.07228474	     -2.91396061	    -13.53306045	      9.85630042	      1.99375001	     -1.27417763	     -6.96975049	    -12.82383632	     -8.05807715	     10.46009042	     -2.27313397	     -2.23112575	      0.94881234	     -1.62623228
      0.15000000	     -2.08244937	     -4.39251177	     -2.70526429	      0.09342960	      1.02055277	      1.33696000	      2.94774459	      3.04968331	     -2.91684073	    -13.63411229	      9.88961012	      1.96859468	     -1.27763672	     -6.93972458	    -12.82487912	     -7.99807345	     10.43468782	     -2.25989393	     -2.23884301	      0.92573566	     -1.65894544
      0.16000000	     -2.09033689	     -4.38234226	     -2.69342482	      0.09337065	      1.02052955	      1.33700300	      2.99800608	      3.04534190	     -2.90465135	    -13.70427920	      9.89456006	      1.95726395	     -1.28788091	     -6.92811595	    -12.83375550	     -7.94989115	     10.42922122	     -2.25630361	     -2.26540158	      0.92867753	     -1.71099295
      0.17000000	     -2.10594025	     -4.34933246	     -2.67065468	      0.09330611	      1.02048609	      1.33703607	      3.07098334	      3.01367407	     -2.93474074	    -13.80260214	      9.94220474	      1.91546700	     -1.28837558	     -6.89178118	    -12.81378201	     -7.89574192	     10.39182165	     -2.24551255	     -2.28244105	      0.90206840	     -1.74082551
      0.18000000	     -2.11969746	     -4.32373193	     -2.63999084	      0.09323693	      1.02044755	      1.33708064	      3.12448475	      2.99242169	     -2.95985282	    -13.86702602	      9.96925868	      1.87717935	     -1.28038090	     -6.86718373	    -12.79115790	     -7.85917664	     10.37168672	     -2.23937039	     -2.30814487	      0.88471936	     -1.80088403
      0.19000000	     -2.12730722	     -4.31608688	     -2.61789510	      0.09318179	      1.02042155	      1.33715123	      3.15704445	      2.99207686	     -2.96063406	    -13.90627003	      9.97375131	      1.86698066	     -1.27960075	     -6.86399381	    -12.78907572	     -7.82896247	     10.36835040	     -2.23717086	     -2.34357534	      0.89063653	     -1.85071722
      0.20000000	     -2.13615060	     -4.29820955	     -2.55702259	      0.09312913	      1.02038546	      1.33715792	      3.19171294	      2.97429890	     -3.04143620	    -13.95103882	     10.01488743	      1.83253366	     -1.26227443	     -6.85053530	    -12.72451898	     -7.81130014	     10.34663523	     -2.22669517	     -2.37880437	      0.88919306	     -1.92126444
      0.21000000	     -2.14923396	     -4.28827563	     -2.50246562	      0.09308636	      1.02034855	      1.33721291	      3.21987801	      2.96896243	     -3.10190708	    -13.97510174	     10.03334477	      1.81187261	     -1.23943991	     -6.85000019	    -12.66780833	     -7.80112797	     10.34181859	     -2.21794895	     -2.41027777	      0.89383899	     -1.99331197
      0.22000000	     -2.16585944	     -4.28313817	     -2.45010447	      0.09305340	      1.02030720	      1.33728186	      3.25019358	      2.96897427	     -3.16503058	    -13.99861546	     10.05877331	      1.79896919	     -1.21134869	     -6.85632367	    -12.61375392	     -7.79625143	     10.33841725	     -2.20628399	     -2.43801922	      0.90825794	     -2.05467495
      0.23000000	     -2.17971676	     -4.27847483	     -2.41889173	      0.09302698	      1.02027386	      1.33741532	      3.28134393	      2.97312434	     -3.18776265	    -14.02999637	     10.07365711	      1.79444569	     -1.19387919	     -6.86593537	    -12.58860696	     -7.78631737	     10.33621062	     -2.19843554	     -2.46916262	      0.92192639	     -2.09872583
      0.24000000	     -2.22567007	     -4.26991702	     -2.35137737	      0.09303070	      1.02018824	      1.33749013	      3.34027037	      2.96860353	     -3.29601198	    -14.05432671	     10.12537624	      1.78512055	     -1.12683839	     -6.87324683	    -12.49631498	     -7.79549827	     10.34311459	     -2.16992683	     -2.45641379	      0.93788094	     -2.16351203
      0.25000000	     -2.24671030	     -4.26552736	     -2.33534372	      0.09302111	      1.02014672	      1.33768818	      3.38963901	      2.97601278	     -3.31007739	    -14.10856970	     10.14468616	      1.78178178	     -1.10671983	     -6.88644681	    -12.47242412	     -7.78662955	     10.33891975	     -2.15808370	     -2.47877324	      0.95409986	     -2.18527951
      0.26000000	     -2.34174749	     -4.24307963	     -2.29271131	      0.09302475	      1.01998815	      1.33785436	      3.52550691	      2.96312407	     -3.38282479	    -14.18072641	     10.22174590	      1.77212322	     -0.98928156	     -6.88606199	    -12.40757495	     -7.80134092	     10.35113544	     -2.10775127	     -2.40410380	      0.95516891	     -2.21979755
      0.27000000	     -2.42316114	     -4.22353075	     -2.29429030	      0.09302101	      1.01985505	      1.33812407	      3.66281741	      2.95972026	     -3.39311494	    -14.28147419	     10.27845415	      1.76114175	     -0.90502301	     -6.88908216	    -12.39295334	     -7.79915594	     10.35710948	     -2.06303777	     -2.35152133	      0.95845051	     -2.21914106
      0.28000000	     -2.50364817	     -4.19756712	     -2.30344322	      0.09303672	      1.01971980	      1.33842539	      3.80769125	      2.95091359	     -3.39479676	    -14.40086978	     10.34766682	      1.74113974	     -0.83038216	     -6.88530936	    -12.38424171	     -7.78634922	     10.35976821	     -2.01825042	     -2.29853360	      0.95568354	     -2.20549003
      0.29000000	     -2.59532096	     -4.16303078	     -2.32627081	      0.09305400	      1.01956504	      1.33878371	      3.97936901	      2.93710757	     -3.38066763	    -14.54845042	     10.42471511	      1.71202533	     -0.74887228	     -6.87478374	    -12.38902324	     -7.77009103	     10.36225096	     -1.96637662	     -2.23437320	      0.94212346	     -2.18059398
